# xmcd CD database file
#
# Track frame offsets:
#	150
#	19847
#	39127
#	56669
#	76452
#	91267
#	108822
#	124299
#	142027
#	165097
#	180449
#	198879
#	212207
#	227882
#	243353
#
# Disc length: 3493 seconds
#
# Revision: 1
# Processed by: cddbd v1.5.2PL0 Copyright (c) Steve Scherf et al.
# Submitted via: CDex 1.51
#
DISCID=bc0da30f
DTITLE=Rascal Flatts - Changed (Deluxe)
DYEAR=2012
DGENRE=Country
TTITLE0=Changed
TTITLE1=Banjo
TTITLE2=Hot In Here
TTITLE3=Come Wake Me Up
TTITLE4=She's Leaving
TTITLE5=Let It Hurt
TTITLE6=Lovin' Me
TTITLE7=Hurry Baby
TTITLE8=Sunrise
TTITLE9=Great Big Love
TTITLE10=A Little Home
TTITLE11=Friday
TTITLE12=Fall Here
TTITLE13=Right One Time
TTITLE14=Next To You, Next To Me
EXTD=YEAR: 2012
EXTT0=
EXTT1=
EXTT2=
EXTT3=
EXTT4=
EXTT5=
EXTT6=
EXTT7=
EXTT8=
EXTT9=
EXTT10=
EXTT11=
EXTT12=
EXTT13=
EXTT14=
PLAYORDER=
